# xmcd
#
# Track frame offsets:
#	150
#	12917
#	25004
#	39569
#	51059
#	60980
#	76309
#	91249
#	104706
#	115671
#	128665
#	142105
#	156370
#	169210
#	181300
#	192651
#	209543
#	219533
#	233948
#	244088
#
# Disc length: 3469 seconds
#
# Revision: 1
# Processed by: cddbd v1.5.1PL2 Copyright (c) Steve Scherf et al.
# Submitted via: audiograbber 1.83.01
#
DISCID=190d8b14
DTITLE=Various Artist - Country Memories Disc 2
DYEAR=1900
DGENRE=Country
TTITLE0=L. Anderson - Rose Garden
TTITLE1=Donna Fargo - Funny Face
TTITLE2=Waylon Jennings - Luckenbach Texas
TTITLE3=Freddy Fender - Before The Next Teardrop Falls
TTITLE4=Statler Brothers - Do You Know You Are My Sunshine
TTITLE5=D. Williams - Til All The Rivers Run Dry
TTITLE6=BJ Thomas - Another Somebody Done Somebody Wrong Song
TTITLE7=B. Fairchild - Teddy Bear Song
TTITLE8=Freddy Hart - Easy Lovin
TTITLE9=Waylon Jennings - Amanda
TTITLE10=Conway Twitty - You've Never Been This Far Before
TTITLE11=M. Montgomery - No Charge
TTITLE12=Jack Greene - Statue Of A Fool
TTITLE13=J. Wallace - If You Leave Me Tonight I'll Cry
TTITLE14=Sammie Smith - Help Me Make It Through The Night
TTITLE15=CW McCall - Convoy
TTITLE16=B. Crash Craddock - Rub It In
TTITLE17=Jeannie C. Riley - Harper Valley PTA
TTITLE18=Jim Reed - When You're Hot You're Hot
TTITLE19=Connie Smith - Country Bumpkin
EXTD=
EXTT0=
EXTT1=
EXTT2=
EXTT3=
EXTT4=
EXTT5=
EXTT6=
EXTT7=
EXTT8=
EXTT9=
EXTT10=
EXTT11=
EXTT12=
EXTT13=
EXTT14=
EXTT15=
EXTT16=
EXTT17=
EXTT18=
EXTT19=
PLAYORDER=
